<?xml version="1.0" encoding="utf-8"?>
<!-- Generator: Adobe Illustrator 16.0.2, SVG Export Plug-In . SVG Version: 6.00 Build 0)  -->
<!DOCTYPE svg PUBLIC "-//W3C//DTD SVG 1.1//EN" "http://www.w3.org/Graphics/SVG/1.1/DTD/svg11.dtd">
<svg version="1.1" id="Capa_1" xmlns="http://www.w3.org/2000/svg" xmlns:xlink="http://www.w3.org/1999/xlink" x="0px" y="0px"
	 width="34.016px" height="34.016px" viewBox="0 0 34.016 34.016" enable-background="new 0 0 34.016 34.016" xml:space="preserve">
<path fill="#8d8d8d" d="M17.008,0C7.615,0,0,7.615,0,17.008c0,9.394,7.615,17.008,17.008,17.008s17.008-7.614,17.008-17.008
	C34.016,7.615,26.401,0,17.008,0z M20.763,14.128l-0.196,2.544h-2.608v8.839h-3.296v-8.839h-1.758v-2.544h1.758v-1.709
	c0-0.753,0.019-1.916,0.566-2.635c0.577-0.762,1.368-1.28,2.729-1.28c2.218,0,3.152,0.316,3.152,0.316l-0.439,2.605
	c0,0-0.733-0.212-1.417-0.212c-0.684,0-1.296,0.245-1.296,0.929v1.986H20.763z"/>
</svg>
