<?xml version="1.0" encoding="utf-8"?>
<!-- Generator: Adobe Illustrator 16.0.2, SVG Export Plug-In . SVG Version: 6.00 Build 0)  -->
<!DOCTYPE svg PUBLIC "-//W3C//DTD SVG 1.1//EN" "http://www.w3.org/Graphics/SVG/1.1/DTD/svg11.dtd">
<svg version="1.1" id="Capa_1" xmlns="http://www.w3.org/2000/svg" xmlns:xlink="http://www.w3.org/1999/xlink" x="0px" y="0px"
	 width="34.016px" height="34.016px" viewBox="-5.833 -9.833 34.016 34.016" enable-background="new -5.833 -9.833 34.016 34.016"
	 xml:space="preserve">
<g>
	<path fill="#8D8D8D" d="M11.175-9.833c-9.393,0-17.008,7.614-17.008,17.008s7.615,17.008,17.008,17.008s17.008-7.614,17.008-17.008
		S20.567-9.833,11.175-9.833z"/>
	<path id="LinkedIn" fill="#0E2033" d="M19.404,7.571v5.408H16.27V7.932c0-1.268-0.453-2.133-1.588-2.133
		c-0.867,0-1.383,0.584-1.609,1.147c-0.082,0.202-0.104,0.481-0.104,0.765v5.267H9.832c0,0,0.042-8.546,0-9.432h3.137v1.337
		c-0.007,0.01-0.016,0.021-0.021,0.031h0.021V4.883c0.416-0.642,1.16-1.558,2.826-1.558C17.857,3.325,19.404,4.673,19.404,7.571z
		 M6.551-1C5.478-1,4.776-0.296,4.776,0.629c0,0.905,0.682,1.63,1.733,1.63H6.53c1.094,0,1.774-0.725,1.774-1.63
		C8.284-0.296,7.624-1,6.551-1z M4.962,12.979h3.135V3.546H4.962V12.979z"/>
</g>
</svg>
