<?xml version="1.0" encoding="utf-8"?>
<!-- Generator: Adobe Illustrator 16.0.2, SVG Export Plug-In . SVG Version: 6.00 Build 0)  -->
<!DOCTYPE svg PUBLIC "-//W3C//DTD SVG 1.1//EN" "http://www.w3.org/Graphics/SVG/1.1/DTD/svg11.dtd">
<svg version="1.1" id="Capa_1" xmlns="http://www.w3.org/2000/svg" xmlns:xlink="http://www.w3.org/1999/xlink" x="0px" y="0px"
	 width="34.016px" height="34.016px" viewBox="0 0 34.016 34.016" enable-background="new 0 0 34.016 34.016" xml:space="preserve">
<path fill="#8d8d8d" d="M17.008,0C7.615,0,0,7.615,0,17.008c0,9.394,7.615,17.008,17.008,17.008c9.393,0,17.008-7.614,17.008-17.008
	C34.016,7.615,26.401,0,17.008,0z M23.797,14.362c0.006,0.149,0.009,0.3,0.009,0.452c0,4.62-3.515,9.945-9.945,9.945
	c-1.974,0-3.811-0.579-5.358-1.57c0.273,0.033,0.552,0.048,0.834,0.048c1.637,0,3.145-0.559,4.341-1.497
	c-1.53-0.027-2.82-1.038-3.265-2.426c0.212,0.041,0.432,0.062,0.657,0.062c0.319,0,0.628-0.041,0.921-0.123
	c-1.6-0.32-2.805-1.733-2.805-3.427v-0.043c0.472,0.26,1.011,0.419,1.584,0.437c-0.938-0.627-1.555-1.698-1.555-2.909
	c0-0.641,0.172-1.241,0.473-1.759c1.725,2.116,4.3,3.506,7.205,3.652c-0.06-0.255-0.09-0.521-0.09-0.796
	c0-1.93,1.565-3.495,3.494-3.495c1.006,0,1.915,0.424,2.551,1.104c0.797-0.156,1.544-0.447,2.22-0.847
	c-0.26,0.816-0.814,1.5-1.537,1.933c0.707-0.084,1.381-0.272,2.007-0.55C25.074,13.253,24.48,13.869,23.797,14.362z"/>
</svg>
