<?xml version="1.0" encoding="utf-8"?>
<!-- Generator: Adobe Illustrator 16.0.2, SVG Export Plug-In . SVG Version: 6.00 Build 0)  -->
<!DOCTYPE svg PUBLIC "-//W3C//DTD SVG 1.1//EN" "http://www.w3.org/Graphics/SVG/1.1/DTD/svg11.dtd">
<svg version="1.1" id="Capa_1" xmlns="http://www.w3.org/2000/svg" xmlns:xlink="http://www.w3.org/1999/xlink" x="0px" y="0px"
	 width="34.016px" height="34.016px" viewBox="0 0 34.016 34.016" enable-background="new 0 0 34.016 34.016" xml:space="preserve">
<g>
	<polygon fill="#8d8d8d" points="11.521,18.636 12.421,18.636 12.421,23.128 13.296,23.128 13.296,18.636 14.205,18.636 
		14.205,17.874 11.521,17.874 	"/>
	<path fill="#8d8d8d" d="M18.816,19.202c-0.12,0-0.24,0.034-0.36,0.094c-0.12,0.061-0.23,0.155-0.333,0.266v-1.688h-0.78v5.254h0.78
		v-0.3c0.103,0.12,0.214,0.205,0.333,0.266c0.12,0.059,0.249,0.085,0.404,0.085c0.23,0,0.411-0.077,0.53-0.223
		c0.12-0.146,0.18-0.36,0.18-0.634v-2.151c0-0.318-0.068-0.558-0.197-0.72C19.245,19.288,19.056,19.202,18.816,19.202z
		 M18.773,22.219c0,0.128-0.026,0.215-0.069,0.266c-0.042,0.061-0.11,0.086-0.213,0.086c-0.061,0-0.12-0.018-0.18-0.043
		c-0.06-0.025-0.129-0.077-0.188-0.137v-2.417c0.051-0.052,0.111-0.095,0.163-0.121c0.051-0.025,0.111-0.034,0.163-0.034
		c0.103,0,0.189,0.034,0.24,0.103c0.06,0.069,0.086,0.163,0.086,0.292V22.219z"/>
	<path fill="#8d8d8d" d="M21.156,19.15c-0.352,0-0.634,0.111-0.848,0.317c-0.223,0.214-0.334,0.488-0.334,0.823v1.74
		c0,0.377,0.103,0.669,0.299,0.883c0.198,0.214,0.472,0.317,0.824,0.317c0.385,0,0.677-0.095,0.865-0.3
		c0.198-0.197,0.301-0.497,0.301-0.9v-0.197h-0.807v0.18c0,0.223-0.025,0.377-0.077,0.437c-0.052,0.069-0.137,0.103-0.266,0.103
		c-0.12,0-0.215-0.034-0.266-0.12c-0.052-0.077-0.069-0.215-0.069-0.42v-0.729h1.484v-0.995c0-0.369-0.103-0.643-0.292-0.84
		C21.783,19.253,21.508,19.15,21.156,19.15z M21.456,20.676h-0.677v-0.394c0-0.154,0.017-0.274,0.078-0.342
		c0.051-0.069,0.137-0.112,0.266-0.112c0.12,0,0.205,0.043,0.257,0.112c0.051,0.068,0.077,0.188,0.077,0.342V20.676z"/>
	<path fill="#8d8d8d" d="M17.009,0C7.616,0,0,7.615,0,17.007C0,26.4,7.616,34.016,17.009,34.016c9.393,0,17.007-7.615,17.007-17.008
		C34.016,7.615,26.401,0,17.009,0z M18.867,11.263h0.875v3.275c0,0.103,0.017,0.171,0.061,0.223
		c0.034,0.043,0.095,0.068,0.171,0.068c0.069,0,0.146-0.034,0.249-0.094c0.095-0.06,0.188-0.137,0.266-0.231v-3.241h0.875v4.27
		h-0.875v-0.471c-0.163,0.18-0.326,0.309-0.498,0.403c-0.18,0.085-0.342,0.128-0.514,0.128c-0.196,0-0.352-0.06-0.454-0.189
		c-0.103-0.128-0.155-0.316-0.155-0.574V11.263z M15.628,12.241c0-0.335,0.119-0.592,0.351-0.789c0.24-0.197,0.557-0.3,0.952-0.3
		c0.359,0,0.659,0.103,0.891,0.317c0.223,0.206,0.343,0.471,0.343,0.797v2.203c0,0.369-0.111,0.651-0.343,0.857
		c-0.222,0.215-0.54,0.317-0.934,0.317c-0.377,0-0.686-0.111-0.917-0.325c-0.223-0.215-0.342-0.497-0.342-0.866V12.241z
		 M13.252,9.746l0.634,2.315h0.069l0.608-2.315h0.995l-1.14,3.386v2.4h-0.985v-2.289l-1.174-3.498H13.252z M25.512,21.843
		c0,1.336-1.098,2.426-2.426,2.426H10.93c-1.33,0-2.426-1.089-2.426-2.426v-2.478c0-1.337,1.097-2.435,2.426-2.435h12.155
		c1.329,0,2.426,1.098,2.426,2.435V21.843z"/>
	<path fill="#8d8d8d" d="M16.887,14.907c0.12,0,0.214-0.034,0.282-0.103c0.069-0.069,0.104-0.154,0.104-0.266v-2.332
		c0-0.094-0.034-0.171-0.104-0.222c-0.076-0.061-0.171-0.086-0.282-0.086c-0.103,0-0.197,0.025-0.257,0.086
		c-0.068,0.051-0.103,0.128-0.103,0.222v2.332c0,0.111,0.035,0.206,0.094,0.266C16.682,14.873,16.776,14.907,16.887,14.907z"/>
	<path fill="#8d8d8d" d="M15.979,22.193c-0.068,0.086-0.146,0.154-0.239,0.206c-0.086,0.06-0.155,0.085-0.214,0.085
		c-0.069,0-0.129-0.017-0.155-0.06c-0.035-0.042-0.052-0.112-0.052-0.197v-2.983h-0.771v3.249c0,0.231,0.042,0.403,0.128,0.514
		c0.095,0.12,0.232,0.18,0.411,0.18c0.146,0,0.292-0.042,0.447-0.128c0.154-0.077,0.308-0.198,0.445-0.36v0.428h0.78v-3.883h-0.78
		V22.193z"/>
</g>
</svg>
